<svg xmlns="http://www.w3.org/2000/svg" width="64" height="64" viewBox="0 0 64 64">
  <circle cx="32" cy="32" r="32" fill="#c91b14"/>
  <!-- Flame -->
  <path d="M32 8 C36 16 44 20 44 30 C44 38 38 44 32 44 C26 44 20 38 20 30 C20 20 28 16 32 8Z" fill="#e3debe" opacity="0.3"/>
  <!-- Pig face -->
  <circle cx="32" cy="34" r="14" fill="#e3debe"/>
  <!-- Ears -->
  <ellipse cx="22" cy="22" rx="5" ry="6" fill="#e3debe" transform="rotate(-15 22 22)"/>
  <ellipse cx="42" cy="22" rx="5" ry="6" fill="#e3debe" transform="rotate(15 42 22)"/>
  <!-- Inner ears -->
  <ellipse cx="22" cy="22" rx="3" ry="4" fill="#c91b14" transform="rotate(-15 22 22)"/>
  <ellipse cx="42" cy="22" rx="3" ry="4" fill="#c91b14" transform="rotate(15 42 22)"/>
  <!-- Snout -->
  <ellipse cx="32" cy="38" rx="8" ry="5" fill="#d4c8b0"/>
  <!-- Nostrils -->
  <ellipse cx="29" cy="38" rx="2" ry="1.5" fill="#c91b14"/>
  <ellipse cx="35" cy="38" rx="2" ry="1.5" fill="#c91b14"/>
  <!-- Eyes -->
  <circle cx="27" cy="31" r="2" fill="#221c1a"/>
  <circle cx="37" cy="31" r="2" fill="#221c1a"/>
  <!-- Eye shine -->
  <circle cx="27.8" cy="30.3" r="0.7" fill="#fff"/>
  <circle cx="37.8" cy="30.3" r="0.7" fill="#fff"/>
</svg>
