<svg xmlns="http://www.w3.org/2000/svg" width="64" height="64" viewBox="0 0 64 64">
  <!-- Red background -->
  <circle cx="32" cy="32" r="32" fill="#c91b14"/>
  <!-- Main flame with multiple tips like a bonfire -->
  <path d="
    M32 5
    C30 12, 26 14, 24 10
    C22 16, 16 24, 15 34
    C14 46, 22 58, 32 58
    C42 58, 50 46, 49 34
    C48 24, 42 16, 40 10
    C38 14, 34 12, 32 5
    Z
  " fill="#e3debe"/>
  <!-- Left small flame tip -->
  <path d="
    M22 12
    C20 18, 17 22, 18 28
    C16 22, 18 14, 22 12
    Z
  " fill="#e3debe"/>
  <!-- Right small flame tip -->
  <path d="
    M42 12
    C44 18, 47 22, 46 28
    C48 22, 46 14, 42 12
    Z
  " fill="#e3debe"/>
  <!-- Inner flame cutout - red -->
  <path d="
    M32 24
    C30 28, 26 30, 25 26
    C23 32, 22 38, 24 44
    C26 50, 30 52, 32 52
    C34 52, 38 50, 40 44
    C42 38, 41 32, 39 26
    C38 30, 34 28, 32 24
    Z
  " fill="#c91b14"/>
</svg>
